<svg xmlns="http://www.w3.org/2000/svg"><symbol id="logo-blk" viewBox="0 0 74 88.5"><path fill="none" d="M42.44 62.41h6.08v6.34h-6.08z"/><path fill="#231f20" d="M22.4 51.42a14 14 0 0 1 2.12 1.25c.72.54 1.38 1.21 2.06 1.82a4.62 4.62 0 0 1 .64.55s.92.85 2.11 2.16l.07.29c5-.78 16.23-3.85 21.53-15.8-.22-.45-.43-.9-.67-1.34l-.19-.45-.07.1c-.22-.39-.45-.78-.69-1.16-1-1.51-1.87-3.06-2.74-4.65C46 33.08 45.5 31.94 45 30.8c2.9-11.51-8.75-24.39-8.84-24.39 2.26 6.34 1.75 13.35.87 18.25.15-8-.87-18.25-.87-18.25l-.41 14.16a42.5 42.5 0 0 0-7.63-12.29c2.1 5.88 1.81 12.32 1.06 17.13h-.17c0-7.8-.89-17.18-.89-17.18L27.62 26l-3.31 1c-.19.09-.39.16-.58.26-.39.22-.77.49-1.17.7a2 2 0 0 0-1.13 1.68A1.6 1.6 0 0 1 20.32 31a10 10 0 0 1-1.92.85 12.07 12.07 0 0 1-2 .25l-2.69.29c-.69.08-1.38.15-2.08.25-.4.05-.79.16-1.18.22l-1.77.26a3.18 3.18 0 0 0-2.23.46 1.43 1.43 0 0 0-.9 1.26 7.52 7.52 0 0 0 .16 3.57c.32 1.3.69 2.58.93 3.92a3.81 3.81 0 0 0 .49 1.2 25.23 25.23 0 0 0 1.46 2.33A6 6 0 0 0 12 48.55a4.27 4.27 0 0 0 .74 0 4.09 4.09 0 0 1 3.07 1.81 4.12 4.12 0 0 0 .86.67c.14.1.28.18.41.29.44.36.92.18 1.39.22a4 4 0 0 1 .47.14 5.34 5.34 0 0 0 1 .19 2.06 2.06 0 0 0 .74-.19c.57-.19 1.13-.55 1.72-.26z"/><path fill="#231f20" d="M57.27 68.75h7.11v-10l-3.26-3.81-.2-.24a37.76 37.76 0 0 0-4.18-4.81A24.1 24.1 0 0 1 54.53 47c-3.19 2.91-16.6 14.26-33.6 16.13l.06.2a9.24 9.24 0 0 1 .51 1.44c.37 1.34.71 2.68 1 4h28.69v-6.36h6.08zM4.98 72.72H3.42v8h4.03v-1.34H4.98v-6.66zM11 75.36a3 3 0 0 0-2.1.73 2.8 2.8 0 0 0 0 4.07 3 3 0 0 0 2.1.73 3 3 0 0 0 2.1-.73 2.8 2.8 0 0 0 0-4.07 3 3 0 0 0-2.1-.73zm0 4.23a1.47 1.47 0 1 1 1.46-1.46A1.45 1.45 0 0 1 11 79.6zm6.52-1.11l-1.61-2.95h-1.7l2.47 4.41-1.91 3.53h1.65l4.19-7.94h-1.66l-1.43 2.95zm7.54-2.28a1.88 1.88 0 0 0-1.67-.84 2.6 2.6 0 0 0-2.58 2.76 2.64 2.64 0 0 0 2.65 2.77 1.86 1.86 0 0 0 1.59-.84v.67h1.46v-5.19h-1.45zm-1.29 3.4a1.47 1.47 0 1 1 1.44-1.48 1.42 1.42 0 0 1-1.44 1.48zm4.15-7.62h1.46v8.74h-1.46zM38 77a2.19 2.19 0 0 0 .94-1.88 2.27 2.27 0 0 0-.79-1.8 2.94 2.94 0 0 0-2-.6h-2.36v8h1.56v-3.21h.19l2.13 3.21h1.94l-2.49-3.37A2.23 2.23 0 0 0 38 77zm-2.21-.6h-.44V74h.47c.29 0 1.51 0 1.51 1.2s-1.24 1.21-1.54 1.21zm7.15-1.04a2.66 2.66 0 0 0-2 .73 2.77 2.77 0 0 0-.79 2 2.62 2.62 0 0 0 .82 2 2.72 2.72 0 0 0 2 .73 2.57 2.57 0 0 0 2.55-1.62l-1.34-.22a1.34 1.34 0 0 1-1.21.68 1.24 1.24 0 0 1-1-.49 1.53 1.53 0 0 1-.25-.87h3.89v-.12a3.11 3.11 0 0 0-.62-2 2.48 2.48 0 0 0-2.05-.82zm-1.19 2.08a1.25 1.25 0 0 1 2.46 0zm7.25-.03l-.35-.11c-.41-.13-.47-.34-.47-.47s.22-.42.56-.42a1.22 1.22 0 0 1 .85.35l.72-.85a2.59 2.59 0 0 0-1.65-.55 2.14 2.14 0 0 0-1.36.37 1.54 1.54 0 0 0-.54 1.18 1.39 1.39 0 0 0 .4 1 2.82 2.82 0 0 0 1.12.62l.34.12a.58.58 0 0 1 .46.53c0 .36-.31.56-.72.56a1.61 1.61 0 0 1-1.15-.6l-.77.89a2.62 2.62 0 0 0 2 .86 2.18 2.18 0 0 0 1.56-.55 1.73 1.73 0 0 0 .54-1.34 1.51 1.51 0 0 0-.26-.86 2.66 2.66 0 0 0-1.28-.73zM52.21 76a2.78 2.78 0 0 0-.9 2.11 2.67 2.67 0 0 0 .83 2 3 3 0 0 0 3.35.43v-1.4a1.7 1.7 0 0 1-1.15.46 1.45 1.45 0 0 1-1.51-1.48 1.39 1.39 0 0 1 1.46-1.46 1.69 1.69 0 0 1 1.2.46v-1.45a3.1 3.1 0 0 0-1.4-.31 2.77 2.77 0 0 0-1.88.64zm7.95 2.47a1.17 1.17 0 0 1-.31.91 1.18 1.18 0 0 1-1.49 0 1.17 1.17 0 0 1-.31-.91v-2.94h-1.46v3.18a2 2 0 0 0 .64 1.59 3.31 3.31 0 0 0 3.77 0 2 2 0 0 0 .64-1.59v-3.18h-1.48zm7.99-.22a3.11 3.11 0 0 0-.62-2 2.48 2.48 0 0 0-2-.85 2.66 2.66 0 0 0-2 .73 2.77 2.77 0 0 0-.79 2 2.62 2.62 0 0 0 .82 2 2.72 2.72 0 0 0 2 .73 2.57 2.57 0 0 0 2.55-1.62l-1.34-.22a1.34 1.34 0 0 1-1.21.68 1.24 1.24 0 0 1-1-.49 1.53 1.53 0 0 1-.25-.87h3.89zm-3.84-.82a1.25 1.25 0 0 1 2.46 0z"/></symbol><symbol id="logo-color" viewBox="0 0 74 88.5"><defs><style>.cls-1{fill:none}.cls-2{fill:#052460}</style></defs><path d="M42.44 62.41h6.08v6.34h-6.08z" class="cls-1"/><path d="M22.4 51.42a14 14 0 0 1 2.12 1.25c.72.54 1.38 1.21 2.06 1.82a4.62 4.62 0 0 1 .64.55s.92.85 2.11 2.16l.07.29c5-.78 16.23-3.85 21.53-15.8-.22-.45-.43-.9-.67-1.34l-.19-.45-.07.1c-.22-.39-.45-.78-.69-1.16-1-1.51-1.87-3.06-2.74-4.65C46 33.08 45.5 31.94 45 30.8c2.9-11.51-8.75-24.39-8.84-24.39 2.26 6.34 1.75 13.35.87 18.25.15-8-.87-18.25-.87-18.25l-.41 14.16a42.5 42.5 0 0 0-7.63-12.29c2.1 5.88 1.81 12.32 1.06 17.13h-.17c0-7.8-.89-17.18-.89-17.18L27.62 26l-3.31 1c-.19.09-.39.16-.58.26-.39.22-.77.49-1.17.7a2 2 0 0 0-1.13 1.68A1.6 1.6 0 0 1 20.32 31a10 10 0 0 1-1.92.85 12.07 12.07 0 0 1-2 .25l-2.69.29c-.69.08-1.38.15-2.08.25-.4.05-.79.16-1.18.22l-1.77.26a3.18 3.18 0 0 0-2.23.46 1.43 1.43 0 0 0-.9 1.26 7.52 7.52 0 0 0 .16 3.57c.32 1.3.69 2.58.93 3.92a3.81 3.81 0 0 0 .49 1.2 25.23 25.23 0 0 0 1.46 2.33A6 6 0 0 0 12 48.55a4.27 4.27 0 0 0 .74 0 4.09 4.09 0 0 1 3.07 1.81 4.12 4.12 0 0 0 .86.67c.14.1.28.18.41.29.44.36.92.18 1.39.22a4 4 0 0 1 .47.14 5.34 5.34 0 0 0 1 .19 2.06 2.06 0 0 0 .74-.19c.57-.19 1.13-.55 1.72-.26z" class="cls-2"/><path d="M57.27 68.75h7.11v-10l-3.26-3.81-.2-.24a37.76 37.76 0 0 0-4.18-4.81A24.1 24.1 0 0 1 54.53 47c-3.19 2.91-16.6 14.26-33.6 16.13l.06.2a9.24 9.24 0 0 1 .51 1.44c.37 1.34.71 2.68 1 4h28.69v-6.36h6.08zM4.98 72.72H3.42v8h4.03v-1.34H4.98v-6.66zM11 75.36a3 3 0 0 0-2.1.73 2.8 2.8 0 0 0 0 4.07 3 3 0 0 0 2.1.73 3 3 0 0 0 2.1-.73 2.8 2.8 0 0 0 0-4.07 3 3 0 0 0-2.1-.73zm0 4.23a1.47 1.47 0 1 1 1.46-1.46A1.45 1.45 0 0 1 11 79.6zm6.52-1.11l-1.61-2.95h-1.7l2.47 4.41-1.91 3.53h1.65l4.19-7.94h-1.66l-1.43 2.95zm7.54-2.28a1.88 1.88 0 0 0-1.67-.84 2.6 2.6 0 0 0-2.58 2.76 2.64 2.64 0 0 0 2.65 2.77 1.86 1.86 0 0 0 1.59-.84v.67h1.46v-5.19h-1.45zm-1.29 3.4a1.47 1.47 0 1 1 1.44-1.48 1.42 1.42 0 0 1-1.44 1.48zm4.15-7.62h1.46v8.74h-1.46zM38 77a2.19 2.19 0 0 0 .94-1.88 2.27 2.27 0 0 0-.79-1.8 2.94 2.94 0 0 0-2-.6h-2.36v8h1.56v-3.21h.19l2.13 3.21h1.94l-2.49-3.37A2.23 2.23 0 0 0 38 77zm-2.21-.6h-.44V74h.47c.29 0 1.51 0 1.51 1.2s-1.24 1.21-1.54 1.21zm7.15-1.04a2.66 2.66 0 0 0-2 .73 2.77 2.77 0 0 0-.79 2 2.62 2.62 0 0 0 .82 2 2.72 2.72 0 0 0 2 .73 2.57 2.57 0 0 0 2.55-1.62l-1.34-.22a1.34 1.34 0 0 1-1.21.68 1.24 1.24 0 0 1-1-.49 1.53 1.53 0 0 1-.25-.87h3.89v-.12a3.11 3.11 0 0 0-.62-2 2.48 2.48 0 0 0-2.05-.82zm-1.19 2.08a1.25 1.25 0 0 1 2.46 0zm7.25-.03l-.35-.11c-.41-.13-.47-.34-.47-.47s.22-.42.56-.42a1.22 1.22 0 0 1 .85.35l.72-.85a2.59 2.59 0 0 0-1.65-.55 2.14 2.14 0 0 0-1.36.37 1.54 1.54 0 0 0-.54 1.18 1.39 1.39 0 0 0 .4 1 2.82 2.82 0 0 0 1.12.62l.34.12a.58.58 0 0 1 .46.53c0 .36-.31.56-.72.56a1.61 1.61 0 0 1-1.15-.6l-.77.89a2.62 2.62 0 0 0 2 .86 2.18 2.18 0 0 0 1.56-.55 1.73 1.73 0 0 0 .54-1.34 1.51 1.51 0 0 0-.26-.86 2.66 2.66 0 0 0-1.28-.73zM52.21 76a2.78 2.78 0 0 0-.9 2.11 2.67 2.67 0 0 0 .83 2 3 3 0 0 0 3.35.43v-1.4a1.7 1.7 0 0 1-1.15.46 1.45 1.45 0 0 1-1.51-1.48 1.39 1.39 0 0 1 1.46-1.46 1.69 1.69 0 0 1 1.2.46v-1.45a3.1 3.1 0 0 0-1.4-.31 2.77 2.77 0 0 0-1.88.64zm7.95 2.47a1.17 1.17 0 0 1-.31.91 1.18 1.18 0 0 1-1.49 0 1.17 1.17 0 0 1-.31-.91v-2.94h-1.46v3.18a2 2 0 0 0 .64 1.59 3.31 3.31 0 0 0 3.77 0 2 2 0 0 0 .64-1.59v-3.18h-1.48zm7.99-.22a3.11 3.11 0 0 0-.62-2 2.48 2.48 0 0 0-2-.85 2.66 2.66 0 0 0-2 .73 2.77 2.77 0 0 0-.79 2 2.62 2.62 0 0 0 .82 2 2.72 2.72 0 0 0 2 .73 2.57 2.57 0 0 0 2.55-1.62l-1.34-.22a1.34 1.34 0 0 1-1.21.68 1.24 1.24 0 0 1-1-.49 1.53 1.53 0 0 1-.25-.87h3.89zm-3.84-.82a1.25 1.25 0 0 1 2.46 0z" class="cls-2"/></symbol><symbol id="logo-reverse" viewBox="0 0 74 88.5"><path fill="none" d="M42.44 62.41h6.08v6.34h-6.08z"/><path fill="#fff" d="M22.4 51.42a14 14 0 0 1 2.12 1.25c.72.54 1.38 1.21 2.06 1.82a4.62 4.62 0 0 1 .64.55s.92.85 2.11 2.16l.07.29c5-.78 16.23-3.85 21.53-15.8-.22-.45-.43-.9-.67-1.34l-.19-.45-.07.1c-.22-.39-.45-.78-.69-1.16-1-1.51-1.87-3.06-2.74-4.65C46 33.08 45.5 31.94 45 30.8c2.9-11.51-8.75-24.39-8.84-24.39 2.26 6.34 1.75 13.35.87 18.25.15-8-.87-18.25-.87-18.25l-.41 14.16a42.5 42.5 0 0 0-7.63-12.29c2.1 5.88 1.81 12.32 1.06 17.13h-.17c0-7.8-.89-17.18-.89-17.18L27.62 26l-3.31 1c-.19.09-.39.16-.58.26-.39.22-.77.49-1.17.7a2 2 0 0 0-1.13 1.68A1.6 1.6 0 0 1 20.32 31a10 10 0 0 1-1.92.85 12.07 12.07 0 0 1-2 .25l-2.69.29c-.69.08-1.38.15-2.08.25-.4.05-.79.16-1.18.22l-1.77.26a3.18 3.18 0 0 0-2.23.46 1.43 1.43 0 0 0-.9 1.26 7.52 7.52 0 0 0 .16 3.57c.32 1.3.69 2.58.93 3.92a3.81 3.81 0 0 0 .49 1.2 25.23 25.23 0 0 0 1.46 2.33A6 6 0 0 0 12 48.55a4.27 4.27 0 0 0 .74 0 4.09 4.09 0 0 1 3.07 1.81 4.12 4.12 0 0 0 .86.67c.14.1.28.18.41.29.44.36.92.18 1.39.22a4 4 0 0 1 .47.14 5.34 5.34 0 0 0 1 .19 2.06 2.06 0 0 0 .74-.19c.57-.19 1.13-.55 1.72-.26z"/><path fill="#fff" d="M57.27 68.75h7.11v-10l-3.26-3.81-.2-.24a37.76 37.76 0 0 0-4.18-4.81A24.1 24.1 0 0 1 54.53 47c-3.19 2.91-16.6 14.26-33.6 16.13l.06.2a9.24 9.24 0 0 1 .51 1.44c.37 1.34.71 2.68 1 4h28.69v-6.36h6.08zM4.98 72.72H3.42v8h4.03v-1.34H4.98v-6.66zM11 75.36a3 3 0 0 0-2.1.73 2.8 2.8 0 0 0 0 4.07 3 3 0 0 0 2.1.73 3 3 0 0 0 2.1-.73 2.8 2.8 0 0 0 0-4.07 3 3 0 0 0-2.1-.73zm0 4.23a1.47 1.47 0 1 1 1.46-1.46A1.45 1.45 0 0 1 11 79.6zm6.52-1.11l-1.61-2.95h-1.7l2.47 4.41-1.91 3.53h1.65l4.19-7.94h-1.66l-1.43 2.95zm7.54-2.28a1.88 1.88 0 0 0-1.67-.84 2.6 2.6 0 0 0-2.58 2.76 2.64 2.64 0 0 0 2.65 2.77 1.86 1.86 0 0 0 1.59-.84v.67h1.46v-5.19h-1.45zm-1.29 3.4a1.47 1.47 0 1 1 1.44-1.48 1.42 1.42 0 0 1-1.44 1.48zm4.15-7.62h1.46v8.74h-1.46zM38 77a2.19 2.19 0 0 0 .94-1.88 2.27 2.27 0 0 0-.79-1.8 2.94 2.94 0 0 0-2-.6h-2.36v8h1.56v-3.21h.19l2.13 3.21h1.94l-2.49-3.37A2.23 2.23 0 0 0 38 77zm-2.21-.6h-.44V74h.47c.29 0 1.51 0 1.51 1.2s-1.24 1.21-1.54 1.21zm7.15-1.04a2.66 2.66 0 0 0-2 .73 2.77 2.77 0 0 0-.79 2 2.62 2.62 0 0 0 .82 2 2.72 2.72 0 0 0 2 .73 2.57 2.57 0 0 0 2.55-1.62l-1.34-.22a1.34 1.34 0 0 1-1.21.68 1.24 1.24 0 0 1-1-.49 1.53 1.53 0 0 1-.25-.87h3.89v-.12a3.11 3.11 0 0 0-.62-2 2.48 2.48 0 0 0-2.05-.82zm-1.19 2.08a1.25 1.25 0 0 1 2.46 0zm7.25-.03l-.35-.11c-.41-.13-.47-.34-.47-.47s.22-.42.56-.42a1.22 1.22 0 0 1 .85.35l.72-.85a2.59 2.59 0 0 0-1.65-.55 2.14 2.14 0 0 0-1.36.37 1.54 1.54 0 0 0-.54 1.18 1.39 1.39 0 0 0 .4 1 2.82 2.82 0 0 0 1.12.62l.34.12a.58.58 0 0 1 .46.53c0 .36-.31.56-.72.56a1.61 1.61 0 0 1-1.15-.6l-.77.89a2.62 2.62 0 0 0 2 .86 2.18 2.18 0 0 0 1.56-.55 1.73 1.73 0 0 0 .54-1.34 1.51 1.51 0 0 0-.26-.86 2.66 2.66 0 0 0-1.28-.73zM52.21 76a2.78 2.78 0 0 0-.9 2.11 2.67 2.67 0 0 0 .83 2 3 3 0 0 0 3.35.43v-1.4a1.7 1.7 0 0 1-1.15.46 1.45 1.45 0 0 1-1.51-1.48 1.39 1.39 0 0 1 1.46-1.46 1.69 1.69 0 0 1 1.2.46v-1.45a3.1 3.1 0 0 0-1.4-.31 2.77 2.77 0 0 0-1.88.64zm7.95 2.47a1.17 1.17 0 0 1-.31.91 1.18 1.18 0 0 1-1.49 0 1.17 1.17 0 0 1-.31-.91v-2.94h-1.46v3.18a2 2 0 0 0 .64 1.59 3.31 3.31 0 0 0 3.77 0 2 2 0 0 0 .64-1.59v-3.18h-1.48zm7.99-.22a3.11 3.11 0 0 0-.62-2 2.48 2.48 0 0 0-2-.85 2.66 2.66 0 0 0-2 .73 2.77 2.77 0 0 0-.79 2 2.62 2.62 0 0 0 .82 2 2.72 2.72 0 0 0 2 .73 2.57 2.57 0 0 0 2.55-1.62l-1.34-.22a1.34 1.34 0 0 1-1.21.68 1.24 1.24 0 0 1-1-.49 1.53 1.53 0 0 1-.25-.87h3.89zm-3.84-.82a1.25 1.25 0 0 1 2.46 0z"/></symbol><symbol id="lifestyle-icon" viewBox="0 0 170.3 156.7"><circle cx="86.4" cy="78.5" r="75.2" fill="#fff"/><path fill="#626d71" d="M91.6 53.1l-6.4-4.6-6 4.6-29.7 21.1v37.2a3.9 3.9 0 0 0 4 3.8h63.8a3.9 3.9 0 0 0 4-3.8V74z"/><path fill="#626d71" d="M91.5 39.9L89 38.2a6.3 6.3 0 0 0-7.1.1l-2.5 1.8L36 70.5a3.4 3.4 0 0 0-.8 4.8 3.4 3.4 0 0 0 4.8.8l43.5-30.6a3.4 3.4 0 0 1 3.9 0l45.4 31.1a3.4 3.4 0 0 0 4.8-.9 3.4 3.4 0 0 0-.9-4.7z"/></symbol><symbol id="about-you-icon" viewBox="0 0 170.3 156.7"><circle cx="86.4" cy="78.5" r="75.2" fill="#fff"/><path fill="#626d71" d="M90.9 71.8a4.9 4.9 0 0 1 1.9-4.5 20 20 0 0 0 7.5-16c0-10.6-7.6-19.2-16.9-19.2s-17 8.5-17 19.1A20.2 20.2 0 0 0 73 66.4a4.8 4.8 0 0 1 1.6 2.8 12.5 12.5 0 0 1 .2 2.2 5 5 0 0 1-3.3 4.6 34.2 34.2 0 0 0-22.4 32.1h68.5a34.3 34.3 0 0 0-23.4-32.5 4.9 4.9 0 0 1-3.3-3.8z"/></symbol><symbol id="error" viewBox="0 0 228 225.2"><path fill="#721825" d="M114 5.6a107.3 107.3 0 1 0 107.3 107.3A107.3 107.3 0 0 0 114 5.6zm1 200.8a93.5 93.5 0 1 1 93.5-93.5 93.5 93.5 0 0 1-93.5 93.5z"/><path fill="#721825" d="M114 36.7v150.4a75.2 75.2 0 0 0 0-150.4z"/><path fill="#8e1e35" d="M38.8 111.9a75.2 75.2 0 0 0 75.2 75.2V36.7a75.2 75.2 0 0 0-75.2 75.2z"/><circle cx="113.7" cy="152" r="12.6" fill="#fff"/><path fill="#fff" d="M113.6 133.4c-.9-.5-2.8-5.5-3.1-6.2-1-2.4-1.9-4.8-2.8-7.2-1.8-4.7-3.5-9.5-5.3-14.2l-8.8-22c-3.2-8 16-9.9 19-10.2a29.9 29.9 0 0 1 19.2 5.2c1.4.9 3.2 2 2.4 4.4-2.8 8.3-6.4 16.3-9.7 24.4s-7 17.1-10.6 25.6c0 .2-.1.2-.3.2z"/></symbol><symbol id="other-info" viewBox="0 0 170.3 156.7"><circle cx="86.4" cy="78.5" r="75.2" fill="#fff"/><circle cx="86.4" cy="48.3" r="11.3" fill="#626d71"/><path fill="#626d71" d="M65.8 64.2v4.3l13.1 3V108l-12.1 2.8v4.4h44v-4.4l-14.2-3.2v-36h.1v-7.4H65.8z"/></symbol><symbol id="pencil-dog" viewBox="0 0 468.89 465.56"><path fill="#c06e32" d="M346.72 457.24l-29.97-54.01-189.15-96.22-28.24 55.51 173.95 88.49 73.41 6.23z"/><path fill="#fae4d7" d="M316.75 403.23l-45.94-3.75 12.82 21.84L241.67 405l31.64 46 73.41 6.24-29.97-54.01z"/><path fill="#231f20" d="M329.36 425.95l-14.54 28.58 31.9 2.71-17.36-31.29z"/><path fill="#e9cfc2" d="M79.12 282.36l-28.24 55.51 30.42 15.47 6.65 3.38 28.24-55.51-37.07-18.85z"/><path d="M87.95 356.72l11.41 5.8-11.41-5.8zm39.65-49.71l-11.41-5.8 11.41 5.8zm-39.645 49.707l28.236-55.512 11.409 5.803-28.236 55.512z"/><path fill="#a56c40" d="M222.4 249.37l-67.61 150.35 12.85 5a40.38 40.38 0 0 0 35.38-3l79.79-47.9z"/><path fill="#8d5d3a" d="M108.54 302.4l22.29 71.67a40.38 40.38 0 0 0 24 25.65l67.57-150.35z"/><path fill="#231c15" d="M146.19 346.43a4.36 4.36 0 0 1 5-5.78c12.64 2.58 38.3 10.23 53.59 31.48 3.55 3.85-27.67 13.22-38.89 16.44a4.37 4.37 0 0 1-5.31-2.71z"/><path fill="#fff" d="M188.62 369.13s-3.21-11.68-11.19-4.56c-.3-.09-.35 12.09 10.59 6 .35.01.6-1.44.6-1.44z"/><path fill="#373f4b" d="M363.25 71.15c-16.64-17.15-38.16-31.3-61.73-40.89L222.4 249.37l-19.92 44.3c2-.35 4.08-.66 6.12-1 5.59 13.81 16.18 23 23.89 35.42a68.21 68.21 0 0 0 15.63 18.05A42.43 42.43 0 0 0 264 354c28.16 6.79 53.66-20.9 69.42-40.34 13.52-16.66 19.92-35.54 30.05-54 12.68-23.1 27.83-43.9 34-70.17 9.87-41.83-4.54-87.66-34.22-118.34z"/><path fill="#2a3039" d="M301.52 30.26c-48.58-19.76-105.9-20.18-147.39 12-11.13 8.67-20.28 19.17-25.91 32.18-6 14-9.43 28.74-15.82 42.62-7.53 16.36-15.74 32.52-21.81 49.5-10.41 29.15-9 58.74-1.83 88.62 3.41 14.14 10.61 26.3 15.73 39.8 1 2.66 2.06 5.4 4.06 7.42 9 9.15 48.7-1.74 60.15-3.4q16.92-2.45 33.79-5.32l19.92-44.3z"/><path fill="#3b424f" d="M161.06 120.38a35.76 35.76 0 0 1-29.71 23.25L24.53 155.25c-8.55.93-12.34-7.28-7.08-15.39C47.63 93.31 134.7-27.36 195.67 25.89z"/><path fill="#fff" d="M188.93 180.27c8.1 3.49 12.58 7.66 14.71 12 1.44-9-2.41-18.64-19.12-25.83-.18-1.27-43.09 18.49-9.87 47.6-15.92-21.04 14.14-34.74 14.28-33.77zm92.27 46.26c6.23-1.53 13.66.55 21.93 10.29 1.1-.17-4.54 41.49-38.59 17.89.24.65.55 1.12.92 1.2 43.53 31.25 49.44-20.64 48.11-20.4-13.01-14.67-24.02-14.25-32.37-8.98z"/><path fill="#3b424f" d="M366 126.46l-21.12 61.69a35.76 35.76 0 0 0 8.45 36.77L429 301.19c6.06 6.11 14.17 2.12 15.19-7.5 2.64-24.9 5.79-68.82 1-109.25a66.18 66.18 0 0 1-79.2-58z"/><path fill="#2a3039" d="M377.52 92.94L366 126.46a66.18 66.18 0 0 0 79.2 58c-5.77-49.17-23.3-93.16-67.68-91.52z"/></symbol><symbol id="pet-info-icon" viewBox="0 0 170.3 156.7"><circle cx="86.4" cy="78.5" r="75.2" fill="#fff"/><path fill="#626d71" d="M109.3 97.9c-1.2-4-4.3-8.7-10.5-14.3h-.1a47.5 47.5 0 0 0-4.3-2.6l1.7-3.6a12.5 12.5 0 0 1 2.3-3.4c5.1 1 8.3-2.8 10.4-7.3a44.2 44.2 0 0 0 3.1-10.8 1.5 1.5 0 0 0-1.9-1.7h-.4l-13.5 3.9-1.9.5a9.8 9.8 0 0 0-4.4-3.9l-2.5 5.9 2.5-5.9a31.6 31.6 0 0 0-8-2.6l-4.3-13.4a2.2 2.2 0 0 0-3.6-.9l-3 3.1a27.1 27.1 0 0 0-5.4 8.7c-1.1 3.5-.8 6.9 2.8 9.6v.3c-.9 3.4-2.8 6.4-3.9 9.6a17.1 17.1 0 0 0-.2 10 37.8 37.8 0 0 0 1.8 4.5 2.3 2.3 0 0 0 .5.8h.1l4.3 6.7c.4 2 4.3 19.7 6.8 23.3a.9.9 0 0 0 1.5 0c.9-1.3 1.9-4.3 2.6-6.7a.9.9 0 0 1 1.8 0l1.8 6.7a.9.9 0 0 0 1.3.6c1.2-.6 1.8-2 2.3-3.1a36.4 36.4 0 0 0 2.3-7.8.7.7 0 0 1 1-.5c2.9 2.2 7.2 5.3 6.9 9.5 0 .7.4 1.6 1.3 1.2 3.1-1.5 8.8-5 9.6-11.2 0 .2.1.3.1.3 8-7.8-.9-5.5-.9-5.5z"/></symbol><symbol id="loyal-logo-color" viewBox="0 0 74 88.5"><path fill="none" d="M42.44 62.41h6.08v6.34h-6.08z"/><path fill="#052460" d="M22.4 51.42a14 14 0 0 1 2.12 1.25c.72.54 1.38 1.21 2.06 1.82a4.62 4.62 0 0 1 .64.55s.92.85 2.11 2.16l.07.29c5-.78 16.23-3.85 21.53-15.8-.22-.45-.43-.9-.67-1.34l-.19-.45-.07.1c-.22-.39-.45-.78-.69-1.16-1-1.51-1.87-3.06-2.74-4.65C46 33.08 45.5 31.94 45 30.8c2.9-11.51-8.75-24.39-8.84-24.39 2.26 6.34 1.75 13.35.87 18.25.15-8-.87-18.25-.87-18.25l-.41 14.16a42.5 42.5 0 0 0-7.63-12.29c2.1 5.88 1.81 12.32 1.06 17.13h-.17c0-7.8-.89-17.18-.89-17.18L27.62 26l-3.31 1c-.19.09-.39.16-.58.26-.39.22-.77.49-1.17.7a2 2 0 0 0-1.13 1.68A1.6 1.6 0 0 1 20.32 31a10 10 0 0 1-1.92.85 12.07 12.07 0 0 1-2 .25l-2.69.29c-.69.08-1.38.15-2.08.25-.4.05-.79.16-1.18.22l-1.77.26a3.18 3.18 0 0 0-2.23.46 1.43 1.43 0 0 0-.9 1.26 7.52 7.52 0 0 0 .16 3.57c.32 1.3.69 2.58.93 3.92a3.81 3.81 0 0 0 .49 1.2 25.23 25.23 0 0 0 1.46 2.33A6 6 0 0 0 12 48.55a4.27 4.27 0 0 0 .74 0 4.09 4.09 0 0 1 3.07 1.81 4.12 4.12 0 0 0 .86.67c.14.1.28.18.41.29.44.36.92.18 1.39.22a4 4 0 0 1 .47.14 5.34 5.34 0 0 0 1 .19 2.06 2.06 0 0 0 .74-.19c.57-.19 1.13-.55 1.72-.26z"/><path fill="#052460" d="M57.27 68.75h7.11v-10l-3.26-3.81-.2-.24a37.76 37.76 0 0 0-4.18-4.81A24.1 24.1 0 0 1 54.53 47c-3.19 2.91-16.6 14.26-33.6 16.13l.06.2a9.24 9.24 0 0 1 .51 1.44c.37 1.34.71 2.68 1 4h28.69v-6.36h6.08zM4.98 72.72H3.42v8h4.03v-1.34H4.98v-6.66zM11 75.36a3 3 0 0 0-2.1.73 2.8 2.8 0 0 0 0 4.07 3 3 0 0 0 2.1.73 3 3 0 0 0 2.1-.73 2.8 2.8 0 0 0 0-4.07 3 3 0 0 0-2.1-.73zm0 4.23a1.47 1.47 0 1 1 1.46-1.46A1.45 1.45 0 0 1 11 79.6zm6.52-1.11l-1.61-2.95h-1.7l2.47 4.41-1.91 3.53h1.65l4.19-7.94h-1.66l-1.43 2.95zm7.54-2.28a1.88 1.88 0 0 0-1.67-.84 2.6 2.6 0 0 0-2.58 2.76 2.64 2.64 0 0 0 2.65 2.77 1.86 1.86 0 0 0 1.59-.84v.67h1.46v-5.19h-1.45zm-1.29 3.4a1.47 1.47 0 1 1 1.44-1.48 1.42 1.42 0 0 1-1.44 1.48zm4.15-7.62h1.46v8.74h-1.46zM38 77a2.19 2.19 0 0 0 .94-1.88 2.27 2.27 0 0 0-.79-1.8 2.94 2.94 0 0 0-2-.6h-2.36v8h1.56v-3.21h.19l2.13 3.21h1.94l-2.49-3.37A2.23 2.23 0 0 0 38 77zm-2.21-.6h-.44V74h.47c.29 0 1.51 0 1.51 1.2s-1.24 1.21-1.54 1.21zm7.15-1.04a2.66 2.66 0 0 0-2 .73 2.77 2.77 0 0 0-.79 2 2.62 2.62 0 0 0 .82 2 2.72 2.72 0 0 0 2 .73 2.57 2.57 0 0 0 2.55-1.62l-1.34-.22a1.34 1.34 0 0 1-1.21.68 1.24 1.24 0 0 1-1-.49 1.53 1.53 0 0 1-.25-.87h3.89v-.12a3.11 3.11 0 0 0-.62-2 2.48 2.48 0 0 0-2.05-.82zm-1.19 2.08a1.25 1.25 0 0 1 2.46 0zm7.25-.03l-.35-.11c-.41-.13-.47-.34-.47-.47s.22-.42.56-.42a1.22 1.22 0 0 1 .85.35l.72-.85a2.59 2.59 0 0 0-1.65-.55 2.14 2.14 0 0 0-1.36.37 1.54 1.54 0 0 0-.54 1.18 1.39 1.39 0 0 0 .4 1 2.82 2.82 0 0 0 1.12.62l.34.12a.58.58 0 0 1 .46.53c0 .36-.31.56-.72.56a1.61 1.61 0 0 1-1.15-.6l-.77.89a2.62 2.62 0 0 0 2 .86 2.18 2.18 0 0 0 1.56-.55 1.73 1.73 0 0 0 .54-1.34 1.51 1.51 0 0 0-.26-.86 2.66 2.66 0 0 0-1.28-.73zM52.21 76a2.78 2.78 0 0 0-.9 2.11 2.67 2.67 0 0 0 .83 2 3 3 0 0 0 3.35.43v-1.4a1.7 1.7 0 0 1-1.15.46 1.45 1.45 0 0 1-1.51-1.48 1.39 1.39 0 0 1 1.46-1.46 1.69 1.69 0 0 1 1.2.46v-1.45a3.1 3.1 0 0 0-1.4-.31 2.77 2.77 0 0 0-1.88.64zm7.95 2.47a1.17 1.17 0 0 1-.31.91 1.18 1.18 0 0 1-1.49 0 1.17 1.17 0 0 1-.31-.91v-2.94h-1.46v3.18a2 2 0 0 0 .64 1.59 3.31 3.31 0 0 0 3.77 0 2 2 0 0 0 .64-1.59v-3.18h-1.48zm7.99-.22a3.11 3.11 0 0 0-.62-2 2.48 2.48 0 0 0-2-.85 2.66 2.66 0 0 0-2 .73 2.77 2.77 0 0 0-.79 2 2.62 2.62 0 0 0 .82 2 2.72 2.72 0 0 0 2 .73 2.57 2.57 0 0 0 2.55-1.62l-1.34-.22a1.34 1.34 0 0 1-1.21.68 1.24 1.24 0 0 1-1-.49 1.53 1.53 0 0 1-.25-.87h3.89zm-3.84-.82a1.25 1.25 0 0 1 2.46 0z"/></symbol></svg>