<?xml version="1.0" encoding="utf-8"?>
<!-- Generator: Adobe Illustrator 22.0.1, SVG Export Plug-In . SVG Version: 6.00 Build 0)  -->
<svg version="1.1" id="Layer_1" xmlns="http://www.w3.org/2000/svg" xmlns:xlink="http://www.w3.org/1999/xlink" x="0px" y="0px"
	 viewBox="0 0 254.8 105.2" style="enable-background:new 0 0 254.8 105.2;" xml:space="preserve">
<style type="text/css">
	.st0{fill:#FFFFFF;}
</style>
<g>
	<g>
		<path class="st0" d="M151.8,82.8L124,7h-9.1c0,0-19.5,52.6-19.5,52.6c0.4-1.1,8.2,0,9,0.1c3.4,0.6,6.8,1.8,9.8,3.5
			c7.3,4.1,12.9,11.1,14.8,19.3c0,0.1,0,0.1,0,0.2c0.2,0.8,0.3,1.7,0.5,2.5c0,0.1,0,0.1,0,0.2h23.2L151.8,82.8z M99.6,56.8L110,27.8
			l9.7,29.1H99.6z"/>
		<path class="st0" d="M86.6,83.2L86.6,83.2l-0.7,2.1h3.5l0.7-2.1l7.1-19.8c-1.1,0.1-2.2,0.2-3.3,0.4L86.6,83.2z"/>
	</g>
	<path class="st0" d="M214.1,11.3c-2.2-1.6-4.7-2.9-7.4-3.8c-6-2.3-12.6-3.2-19.4-2.3c-22,3-37.4,24-34.3,46.9
		c3.1,22.9,23.5,39.1,45.6,36.1c22-3,37.4-24,34.3-46.9C231,28.4,223.9,17.7,214.1,11.3z M157.9,51.4c-2.7-20,10.7-38.4,30-41.1
		c3-0.4,6.8-1.1,9.6,0.8c3.5,2.5,4.6,8.2,5.5,12c1.3,5.6,2.1,11.4,2.8,17.1c0,0,1.1,8.1,1.1,8.1c2.8,20.2,2.9,31-6.6,34
		c-0.8,0.2-1.7,0.4-2.6,0.5C178.5,85.6,160.6,71.5,157.9,51.4z"/>
	<g>
		<path class="st0" d="M87.1,7.7H68.6v3.9c5.2,2.4,9.7,6.2,12.8,11c2.4,3.7,4.1,8,4.6,12.7c0,0.1,0.1,0.2,0.1,0.3h2.1L87.1,7.7z"/>
		<polygon class="st0" points="45.7,7.7 43.6,7.7 43.6,14.4 43.6,14.4 43.6,83 43.6,83 43.6,85.4 65.3,85.4 65.3,70.3 65.3,70.3 
			65.3,14.7 65.3,10.3 65.3,7.7 63.2,7.7 		"/>
		<path class="st0" d="M20.5,35.5h2.1c0.1-0.2,0.2-0.5,0.2-0.7c0.6-4.3,2.1-8.3,4.3-11.8c3.1-4.9,7.5-8.8,12.8-11.3v-4H21.7
			L20.5,35.5z"/>
	</g>
	<rect x="21.4" y="97.6" class="st0" width="211.8" height="2"/>
</g>
</svg>
